<?xml version="1.0" encoding="utf-8"?>
<!-- Generator: Adobe Illustrator 21.0.0, SVG Export Plug-In . SVG Version: 6.00 Build 0)  -->
<svg version="1.1" id="Layer_1" xmlns="http://www.w3.org/2000/svg" xmlns:xlink="http://www.w3.org/1999/xlink" x="0px" y="0px"
	 viewBox="0 0 120 150" style="enable-background:new 0 0 120 150;" xml:space="preserve">
<style type="text/css">
	.st0{fill:#FFFFFF;stroke:#000000;stroke-miterlimit:10;}
	.st1{fill:none;stroke:#000000;stroke-miterlimit:10;}
</style>
<g id="XMLID_8_">
	<path d="M1.3,51.9C20.9,37.1,40.5,21.7,60.1,6.7C79.7,21.7,99.4,37,119,51.8c2,1.5,0.9,4.7-1.6,4.7L2.9,56.5
		C0.4,56.5-0.7,53.4,1.3,51.9z"/>
</g>
<path id="XMLID_1_" class="st0" d="M21.6,121.2"/>
<path d="M26.3,82.9v-8h-7.5v8h-4.1v-20h4.1v7.9h7.5v-7.9h4.1v20H26.3z"/>
<path d="M43.8,83.2c-5.7,0-9.8-4.6-9.8-10.3v-0.1c0-5.7,4.1-10.3,9.8-10.3c5.7,0,9.8,4.6,9.8,10.3v0.1
	C53.6,78.5,49.5,83.2,43.8,83.2z M49.4,72.9c0-3.4-2.3-6.3-5.6-6.3c-3.3,0-5.5,2.8-5.5,6.2v0.1c0,3.4,2.3,6.3,5.6,6.3
	C47.1,79.1,49.4,76.3,49.4,72.9L49.4,72.9z"/>
<path d="M64.9,83.2c-5,0-8-3-8-8.9V62.9H61v11.3c0,3.3,1.5,4.9,4,4.9c2.5,0,4-1.6,4-4.8V62.9H73v11.3C73,80.2,69.8,83.2,64.9,83.2z"
	/>
<path d="M83.7,83.1c-2.8,0-5.6-1.1-7.8-3.2l2.4-3.1c1.7,1.5,3.4,2.4,5.5,2.4c1.7,0,2.7-0.7,2.7-1.9v-0.1c0-1.1-0.6-1.7-3.7-2.5
	c-3.7-1-6.1-2.1-6.1-6.1v-0.1c0-3.6,2.7-6,6.5-6c2.7,0,5,0.9,6.8,2.5l-2.1,3.3c-1.6-1.2-3.2-2-4.8-2c-1.6,0-2.4,0.8-2.4,1.7v0.1
	c0,1.3,0.8,1.7,4,2.6c3.7,1.1,5.8,2.5,5.8,6v0.1C90.4,80.9,87.6,83.1,83.7,83.1z"/>
<path d="M94,82.9v-20h13.9v3.9H98v4.1h8.7v3.9H98v4.2h10v3.9H94z"/>
<path d="M25,112.4c-6.8,0-11.9-5.7-11.9-12.9v-0.1c0-7.1,5-13,12.1-13c4.4,0,7,1.6,9.1,3.9l-3.2,4.1c-1.8-1.8-3.6-2.8-5.9-2.8
	c-3.9,0-6.7,3.5-6.7,7.8v0.1c0,4.3,2.7,7.9,6.7,7.9c2.6,0,4.3-1.1,6.1-2.9l3.2,3.6C32.1,110.7,29.4,112.4,25,112.4z"/>
<path d="M102.4,112.7V95.9l-6.7,11h-0.1L89,96v16.7h-5.1V86.9h5.6l6.2,10.9l6.2-10.9h5.6v25.8H102.4z"/>
<path id="XMLID_11_" class="st1" d="M32.1,112.5"/>
<g id="XMLID_22_">
	<path id="XMLID_13_" class="st1" d="M30.1,112.9"/>
	<path id="XMLID_12_" class="st1" d="M93,113.1"/>
	<path id="XMLID_9_" class="st1" d="M17.5,112.6"/>
	<path id="XMLID_7_" class="st1" d="M106,112.9"/>
</g>
<circle cx="59.9" cy="96.2" r="8.2"/>
<g id="XMLID_29_">
	<g>
		<path d="M44.1,110.3c8.4,9.1,23.4,8.9,31.4-0.5c2.4-2.8-1.6-6.8-4-4c-6.1,7.2-17,7.5-23.4,0.5C45.6,103.6,41.6,107.6,44.1,110.3
			L44.1,110.3z"/>
	</g>
</g>
<g id="XMLID_17_">
	<g>
		<path d="M34.1,120.1C46.8,135,70.7,135,83.3,120c2.3-2.8-1.7-6.8-4-4c-10.7,12.7-30.4,12.8-41.2,0.1
			C35.7,113.3,31.7,117.4,34.1,120.1L34.1,120.1z"/>
	</g>
</g>
<g id="XMLID_15_">
	<g>
		<path d="M25,129.7c18.3,19.8,51,19.9,69.4,0.1c2.5-2.7-1.5-6.7-4-4c-16.3,17.6-45.1,17.5-61.4-0.1C26.5,123,22.5,127,25,129.7
			L25,129.7z"/>
	</g>
</g>
</svg>
